<?xml version="1.0" standalone="no"?>
<!DOCTYPE svg PUBLIC "-//W3C//DTD SVG 20010904//EN"
 "http://www.w3.org/TR/2001/REC-SVG-20010904/DTD/svg10.dtd">
<svg version="1.0" xmlns="http://www.w3.org/2000/svg"
 width="382.014124pt" height="490.579647pt" viewBox="0 0 382.014124 490.579647"
 preserveAspectRatio="xMidYMid meet">
<metadata>
Created by potrace 1.12, written by Peter Selinger 2001-2015
</metadata>
<g transform="translate(-58.500000,490.945203) scale(0.100000,-0.100000)"
fill="#000000" stroke="none">
<path d="M2425 4874 c-128 -89 -369 -194 -559 -243 -260 -68 -755 -46 -1026
45 -76 25 -174 66 -195 80 -11 8 -23 14 -28 14 -4 0 -6 -435 -4 -967 3 -1072
-3 -960 67 -1248 91 -377 325 -825 601 -1150 67 -80 273 -286 338 -338 18 -15
32 -29 30 -31 -2 -1 -67 -15 -144 -30 -259 -50 -565 -135 -565 -158 0 -19 182
-568 189 -568 3 0 69 18 146 41 162 46 479 112 645 133 227 29 421 39 680 33
427 -10 753 -60 1183 -184 49 -14 91 -23 94 -20 3 3 47 134 98 290 l92 285
-96 30 c-138 44 -304 85 -474 118 -81 16 -146 31 -145 34 2 3 48 47 103 97
107 96 235 233 328 350 137 173 319 482 402 683 14 36 32 79 40 95 13 29 67
203 99 315 16 59 42 202 56 315 11 88 13 1862 2 1869 -5 3 -22 -3 -39 -14 -83
-50 -340 -121 -508 -140 -511 -57 -843 10 -1239 249 -46 28 -92 51 -102 50
-11 0 -41 -16 -69 -35z m153 -229 c100 -57 266 -130 367 -162 44 -13 90 -29
102 -33 13 -5 78 -19 145 -31 102 -18 161 -21 338 -21 228 1 397 19 569 62 52
13 87 18 93 12 6 -6 8 -297 5 -753 -3 -625 -7 -761 -20 -849 -29 -183 -66
-329 -129 -500 -93 -257 -263 -559 -438 -778 -114 -143 -312 -340 -438 -436
l-103 -78 -184 12 -184 13 72 41 c336 193 635 483 852 828 162 257 281 563
336 863 21 113 22 154 26 748 l5 627 -34 0 c-18 0 -91 -7 -163 -15 -188 -21
-411 -19 -580 5 -77 12 -153 25 -170 30 -180 52 -321 103 -423 152 l-124 59
-102 -50 c-192 -95 -425 -165 -644 -195 -142 -20 -431 -20 -572 -1 -58 8 -120
15 -138 15 l-34 0 5 -642 c5 -686 4 -678 58 -898 106 -428 349 -843 680 -1165
162 -157 291 -256 471 -360 37 -21 66 -40 65 -41 -1 -1 -84 -8 -184 -14 l-182
-13 -53 40 c-188 142 -405 364 -548 558 -257 350 -418 722 -492 1140 -20 114
-22 158 -25 879 -2 417 -2 764 1 771 4 11 15 11 63 -1 32 -8 121 -27 198 -41
126 -24 164 -26 385 -27 216 0 258 2 354 22 156 32 269 66 391 117 59 25 253
123 278 140 12 8 23 15 25 15 1 0 38 -20 80 -45z m-200 -1149 c1 -347 -1 -633
-5 -637 -5 -3 -70 -4 -145 -1 l-138 5 -2 501 -3 501 -108 3 -108 3 3 -673 c4
-639 5 -678 25 -773 12 -55 36 -140 53 -190 33 -93 104 -225 120 -225 6 0 11
124 12 308 l3 307 145 0 145 0 3 -617 c1 -340 -2 -618 -6 -618 -5 0 -48 24
-95 54 -293 184 -535 482 -632 776 -61 185 -58 138 -62 1063 l-4 847 398 -2
398 -3 3 -629z m947 119 l0 -510 -137 -3 -138 -3 -2 383 -3 383 -117 3 -118 3
0 -496 0 -495 254 0 c193 0 257 -3 263 -12 11 -20 8 -252 -6 -348 -24 -170
-69 -316 -141 -465 -123 -252 -283 -433 -529 -595 -83 -55 -107 -67 -113 -56
-5 8 -7 230 -6 493 l3 478 143 3 142 3 0 -186 c0 -105 4 -185 9 -185 14 0 115
205 151 305 34 98 73 271 64 286 -3 5 -119 9 -260 9 l-254 0 0 753 c0 415 3
757 7 760 4 4 182 6 397 5 l391 -3 0 -510z m-915 -2765 c0 -18 -7 -20 -70 -20
-56 0 -70 -3 -70 -15 0 -12 14 -15 70 -15 l70 0 0 -55 0 -55 -85 0 c-78 0 -85
2 -85 20 0 18 7 20 70 20 56 0 70 3 70 15 0 12 -14 15 -70 15 l-70 0 0 49 c0
56 1 57 113 60 51 1 57 -1 57 -19z m210 0 c0 -18 -7 -20 -70 -20 -56 0 -70 -3
-70 -15 0 -12 15 -15 71 -15 62 0 70 -2 67 -17 -3 -15 -16 -19 -71 -21 -51 -2
-67 -6 -67 -17 0 -12 15 -15 70 -15 56 0 70 -3 70 -15 0 -12 -17 -15 -90 -15
l-90 0 0 85 0 85 90 0 c83 0 90 -1 90 -20z m207 6 c1 -1 -1 -38 -4 -84 -5 -71
-8 -82 -24 -82 -17 0 -18 6 -12 61 7 70 0 79 -59 79 -36 0 -38 -2 -38 -32 0
-59 -12 -108 -26 -108 -11 0 -14 19 -14 83 0 46 3 86 6 89 4 5 164 -1 171 -6z
m200 -11 c26 -8 1 -35 -33 -35 l-33 0 -3 -62 c-3 -52 -6 -63 -22 -66 -18 -4
-19 1 -13 67 l6 71 -35 0 c-27 0 -34 4 -34 20 0 18 5 19 78 14 42 -3 83 -7 89
-9z m-957 -22 c0 -16 3 -38 6 -50 4 -15 1 -22 -12 -25 -13 -2 -18 -13 -18 -38
-1 -47 -30 -49 -34 -2 -3 31 -6 33 -35 30 -29 -3 -32 -6 -32 -38 0 -24 -5 -36
-16 -38 -13 -2 -18 9 -22 50 -4 29 -7 70 -7 90 0 37 0 37 48 41 123 9 122 10
122 -20z m1036 -15 c-3 -18 -8 -59 -11 -90 -4 -32 -8 -58 -10 -58 -26 0 -31
14 -24 78 5 37 8 75 8 85 1 10 9 17 21 17 18 0 20 -5 16 -32z m-1248 5 c-2
-10 -10 -19 -18 -20 -8 -1 -36 -5 -62 -8 -33 -4 -48 -11 -48 -21 0 -13 11 -14
70 -8 59 5 70 4 70 -9 0 -16 -29 -27 -72 -27 -37 0 -58 -10 -58 -26 0 -13 24
-13 124 0 6 0 11 -6 13 -16 4 -17 0 -18 -119 -34 -53 -7 -53 -8 -63 98 l-7 67
38 6 c22 3 46 8 54 10 8 1 30 3 48 4 27 1 33 -3 30 -16z m1436 0 c16 -4 17
-12 12 -61 -11 -93 -17 -112 -33 -112 -14 0 -15 10 -9 69 l6 70 -45 7 c-25 3
-48 4 -50 2 -3 -3 -8 -32 -11 -66 -6 -53 -10 -62 -27 -62 -20 0 -20 2 -1 134
l6 38 67 -7 c36 -3 74 -9 85 -12z m-1639 -35 c10 -47 25 -141 22 -143 -1 -1
-39 -9 -84 -17 -73 -13 -83 -13 -88 1 -3 8 -1 17 4 20 14 9 1 92 -15 98 -8 3
-14 13 -14 23 0 14 13 20 58 28 96 16 111 15 117 -10z m1796 11 c58 -10 69
-15 69 -32 0 -15 -5 -18 -22 -14 -13 3 -44 9 -70 12 -40 6 -48 5 -48 -8 0 -15
10 -19 93 -33 28 -5 37 -11 35 -23 -3 -12 -12 -15 -38 -12 -114 15 -152 -9
-44 -27 73 -12 83 -17 67 -33 -9 -9 -33 -8 -93 1 -80 12 -81 13 -76 39 3 14 8
44 12 66 13 85 6 81 115 64z m-1987 -101 c9 -45 14 -83 12 -86 -6 -5 -125 -31
-147 -32 -9 0 -19 6 -22 14 -5 11 8 18 51 27 71 15 83 21 74 36 -5 9 -23 8
-70 -2 -34 -7 -64 -10 -66 -6 -2 3 -7 27 -11 54 -6 40 -5 47 9 47 10 0 19 -11
23 -30 6 -32 8 -33 67 -23 37 6 38 7 33 39 -3 18 -3 35 0 38 19 19 32 -2 47
-76z m2122 46 c-4 -13 -9 -43 -12 -67 l-6 -43 62 -12 c71 -13 73 -14 65 -34
-6 -14 -15 -14 -86 2 -43 9 -81 19 -83 21 -4 4 19 130 29 156 2 7 11 10 20 6
12 -4 15 -13 11 -29z m-2340 -25 c9 -15 -8 -24 -72 -38 -30 -7 -54 -18 -54
-24 0 -13 20 -87 23 -87 1 0 27 7 57 15 71 19 82 19 78 -2 -2 -12 -25 -22 -73
-35 -39 -9 -75 -18 -81 -18 -9 0 -41 102 -48 154 -1 9 110 43 146 45 9 1 20
-4 24 -10z m2612 -6 c42 -10 72 -22 72 -29 0 -22 -15 -23 -74 -8 -31 8 -61 12
-66 9 -21 -13 -8 -24 44 -36 74 -16 79 -20 71 -61 -12 -61 -14 -63 -96 -43
-81 19 -99 29 -82 46 7 7 27 6 69 -5 39 -10 62 -12 69 -5 14 14 -5 23 -71 38
-30 7 -54 18 -54 24 0 29 22 87 33 87 7 0 45 -7 85 -17z"/>
<path d="M1953 803 c-7 -2 -13 -12 -13 -20 0 -12 7 -14 31 -9 17 3 40 6 50 6
11 0 19 7 19 15 0 11 -10 15 -37 14 -21 0 -44 -3 -50 -6z"/>
<path d="M1563 753 c-25 -5 -32 -33 -9 -33 39 0 74 13 69 26 -5 14 -17 15 -60
7z"/>
<path d="M1568 683 c-10 -2 -18 -11 -18 -20 0 -12 8 -13 43 -8 49 8 51 10 42
24 -6 11 -35 13 -67 4z"/>
<path d="M3965 463 c-86 -264 -99 -287 -176 -299 -41 -7 -28 -11 200 -76 133
-39 245 -67 248 -64 4 4 -39 258 -52 306 -3 9 43 66 110 140 62 69 112 126
110 128 -5 6 -337 102 -350 102 -7 0 -46 -103 -90 -237z"/>
<path d="M790 646 c-74 -23 -151 -46 -170 -52 l-35 -10 95 -100 c52 -54 105
-111 118 -125 l22 -25 -29 -165 c-16 -90 -28 -165 -27 -165 0 -1 116 33 256
75 250 74 254 76 202 81 -85 9 -95 25 -183 293 -62 191 -79 232 -95 234 -10 1
-80 -18 -154 -41z"/>
<path d="M1228 283 c-49 -14 -88 -31 -88 -38 0 -6 10 -21 23 -33 20 -19 35
-22 116 -22 82 0 92 2 87 16 -4 9 -11 36 -17 60 -6 24 -16 44 -23 43 -6 0 -50
-12 -98 -26z"/>
<path d="M3661 287 c-5 -14 -13 -41 -16 -61 l-7 -36 85 0 c70 0 89 3 111 21
48 38 39 44 -146 96 -12 3 -21 -4 -27 -20z"/>
</g>
</svg>
